# xmcd
# Copyright (C) 1995-1998 Ti Kan
#
# Track frame offsets:
#       150
#       21526
#       41745
#       63470
#       91437
#       114407
#       125634
#       151125
#       171305
#       188302
#
# Disc length: 2838 seconds
#
# Revision: 0
# Processed by: cddbd v1.5.2PL0 Copyright (c) Steve Scherf et al.
# Submitted via: CD-Import v1.0
#
DISCID=820b140a
DTITLE=Geatan Breton - Anything On My Way
DYEAR=07
DGENRE=
TTITLE0=Lift You Up
TTITLE1=Need A Lord
TTITLE2=Anything On May Way
TTITLE3=Just Seen
TTITLE4=Waiting For
TTITLE5=The Wheel Turns
TTITLE6=Not In Vain
TTITLE7=Can't Believe
TTITLE8=West 11th Street
TTITLE9=The Deeds
EXTD=
EXTT0=
EXTT1=
EXTT2=
EXTT3=
EXTT4=
EXTT5=
EXTT6=
EXTT7=
EXTT8=
EXTT9=
PLAYORDER=
